<?xml version="1.0" standalone="no"?>
<!DOCTYPE svg PUBLIC "-//W3C//DTD SVG 20010904//EN"
 "http://www.w3.org/TR/2001/REC-SVG-20010904/DTD/svg10.dtd">
<svg version="1.0" xmlns="http://www.w3.org/2000/svg"
 width="270.000000pt" height="270.000000pt" viewBox="0 0 270.000000 270.000000"
 preserveAspectRatio="xMidYMid meet">
<metadata>
Created by potrace 1.14, written by Peter Selinger 2001-2017
</metadata>
<g transform="translate(0.000000,270.000000) scale(0.100000,-0.100000)"
fill="#000000" stroke="none">
<path d="M0 1350 l0 -1350 1350 0 1350 0 0 1350 0 1350 -1350 0 -1350 0 0
-1350z m1717 1053 c197 -113 441 -255 543 -314 l185 -107 3 -126 c2 -85 -1
-126 -8 -126 -6 0 -306 169 -666 376 l-655 376 108 64 c59 34 114 63 120 63 7
1 174 -92 370 -206z m-10 -437 l738 -424 3 -156 c1 -86 0 -156 -3 -156 -5 0
-1685 983 -1718 1005 -15 11 -2 21 105 83 68 39 126 71 130 72 4 0 339 -191
745 -424z m-237 -347 c481 -282 899 -526 928 -543 l52 -30 0 -118 c0 -65 -2
-118 -4 -118 -2 0 -422 241 -933 536 -510 295 -983 568 -1051 607 -80 45 -120
73 -113 80 5 5 54 35 108 67 86 51 100 56 118 45 11 -7 414 -244 895 -526z
m-1153 236 l43 -26 0 -517 0 -518 495 -291 496 -292 217 126 c119 69 324 185
455 259 l238 135 51 -29 51 -30 -24 -15 c-13 -8 -105 -62 -204 -119 -587 -342
-779 -449 -793 -445 -10 2 -258 144 -552 314 l-535 310 -3 429 c-3 411 4 734
16 734 3 0 25 -11 49 -25z m381 -220 l152 -87 0 -238 0 -239 28 -19 c15 -10
127 -76 250 -146 l222 -128 204 116 c112 64 209 116 215 116 6 0 93 -47 192
-104 175 -101 180 -105 157 -119 -32 -20 -269 -159 -540 -316 l-227 -131 -436
251 -435 251 0 460 0 460 33 -20 c17 -11 101 -59 185 -107z"/>
</g>
</svg>
